<svg xmlns="http://www.w3.org/2000/svg" viewBox="0 0 897.60586 509.53695" xmlns:xlink="http://www.w3.org/1999/xlink">
    <circle cx="65" cy="219.59145" r="65" fill="#ff6884" />
    <path
        d="M149.38373,507.68761H24.21631L52.50372,139.68761l-3.53998-107,3.51837-18.05263c4.16594-21.37531,35.59571-18.52076,35.84411,3.25531,.57752,50.62808,1.36221,98.27479,2.39753,121.79732,4.66998,106.48999,14.42999,257.48999,33.23999,302,13.96997,33.07001,21.44,53.56,25.41998,66Z"
        fill="#3f3d56" />
    <path
        d="M881.38373,507.68761h-115.71997l-12.16003-368-1.31506-106.98019c-.26832-21.82772,31.19235-25.3629,35.77505-4.01998l.00004,.00018s.96997,47.60999,3.76001,111c4.66998,106.48999,45.42999,257.48999,64.23999,302,13.96997,33.07001,21.44,53.56,25.41998,66Z"
        fill="#3f3d56" />
    <path
        d="M187.46375,296.18761c26.17947,2.10492,86.99994,33.99994,87,34,47.26279,47.31976,117.85486,50.12592,165,52,70.09753,2.7865,123.16309-19.03186,162-35,.00012-.00006,90.79102-20.91016,92-21,1.4469-.10751,2.81732,3.4599,3,4,2.99634,8.85846-29.948,41.67468-68,53-5.18396,1.54291-16.94427,4.61603-29,14-7.4845,5.82581-11.88135,11.59204-13,13-10.21014,12.85089-64.46973,61.80426-126,64-52.62238,1.87787-94.68774-31.01001-142-68-18.7652-14.67114-16.51492-15.75439-40-34-53.26199-41.37933-79.89301-62.06903-92-69-1.67798-.9606-7.55383-4.24442-7-6,.50555-1.60257,6.12259-1.15094,8-1Z"
        fill="#2563eb" />
    <path
        d="M179.46277,298.18761c-.18018,0-.3623-.04883-.52637-.15039L48.73181,217.21642c-.46924-.29102-.61377-.90771-.32227-1.37695,.29102-.47021,.9082-.61475,1.37695-.32227l130.20459,80.8208c.46924,.29102,.61377,.9082,.32227,1.37695-.18945,.30469-.51611,.47266-.85059,.47266Z"
        fill="#3f3d56" />
    <path
        d="M693.46472,327.18761c-.36084,0-.70898-.19531-.88721-.53711-.25586-.48926-.06641-1.09375,.42334-1.34961l112.6416-58.82861c.49121-.25586,1.09375-.06641,1.34912,.42334,.25586,.48926,.06641,1.09375-.42334,1.34961l-112.6416,58.8291c-.14795,.07715-.30615,.11328-.46191,.11328Z"
        fill="#3f3d56" />
    <path
        d="M11.93581,508.34695c0,.66003,.53003,1.19,1.19006,1.19H172.41585c.65997,0,1.19-.52997,1.19-1.19,0-.65997-.53003-1.19-1.19-1.19H13.12587c-.66003,0-1.19006,.53003-1.19006,1.19Z"
        fill="#3f3d56" />
    <path
        d="M724.93581,508.34695c0,.66003,.53003,1.19,1.19006,1.19h170.28998c.65997,0,1.19-.52997,1.19-1.19,0-.65997-.53003-1.19-1.19-1.19h-170.28998c-.66003,0-1.19006,.53003-1.19006,1.19Z"
        fill="#3f3d56" />
    <g>
        <path
            d="M290.56079,314.5665s-6.38424,10.03017-1.1334,15.93618c5.25084,5.90602,36.99406,29.43636,36.99406,29.43636,0,0,19.9973,12.26127,18.03896-4.62546-1.95833-16.88674-30.46592-34.95868-30.46592-34.95868l-23.4337-5.7884Z"
            fill="#e6e6e6" />
        <path
            d="M342.45135,288.02161c-3.4147-.32934-6.60208,3.75299-7.11993,9.12044-.23628,2.14128,.04367,4.30795,.81642,6.31881l-.5108,6.08936-.10474,.01048-7.10982,27.96309c-1.65312,6.50176-.30372,13.46747,3.88249,18.70973,2.49028,3.1185,5.42304,5.02176,8.09187,2.20966,4.42847-4.66618,4.28847-27.46958,3.8211-40.50932l1.46719-13.55289c1.14364-1.82646,1.83312-3.90027,2.01073-6.04784,.51841-5.3655-1.82985-9.98213-5.24453-10.31151Z"
            fill="#ffb6b6" />
    </g>
    <g>
        <path
            d="M355.28573,286.81139l-.04314-.42076c-.03234-.33449-.20501-.63664-.47476-.84165s-.61504-.28055-.94953-.22661l-16.22817,3.086c-.33449,.06474-.61504,.25895-.79845,.5395-.17268,.29129-.22661,.63657-.14028,.96026l.15101,.5611,1.079,4.02466,4.165,15.53766c.15101,.5611,.67978,.92793,1.24081,.88479,.054,0,.09714,0,.15108-.0108l12.82935-2.52483c.12948-.0216,.24815-.0648,.35609-.12954,.40996-.22655,.65818-.67971,.61497-1.16528l-1.95299-20.2745Z"
            fill="#2563eb" />
        <path
            d="M354.97152,284.46916c-.23191,.00529-.54221,.01503-.91413,.03139,.07484-.19581,.08728-.41758,.01666-.63451l-.49036-1.50625c-.12727-.39092-.48952-.65661-.90064-.65875-2.44945-.0127-10.84432,.17755-15.75583,3.21358-.30728,.18996-.47545,.54199-.43983,.90147l.16383,1.6531c.02027,.2044,.10368,.38554,.22748,.5287-.4186,.17227-.83493,.35107-1.24635,.54056-.25783,.11875-.41967,.38054-.41604,.66438l.00908,.71192c.00578,.45176,.41987,.7876,.86308,.69997l19.38264-3.83181c.44109-.0872,.69644-.55162,.53376-.97076l-.34225-.88181c-.11026-.2841-.38644-.46814-.6911-.46118Z"
            fill="#3f3d56" />
    </g>
    <polygon points="308.86281 306.78835 304.5468 320.81538 286.20376 316.49937 285.12475 293.84032 308.86281 306.78835"
        fill="#ffb6b6" />
    <path
        d="M282.96675,313.26237l23.73805,2.158,9.51151,9.29034,13.14754,11.21071s7.55302,10.79002,5.39501,24.81706l12.94803,10.79002-32.37007,33.1857-41.00209-34.2647s-14.02703-42.0811,8.63202-57.18713Z"
        fill="#e6e6e6" />
    <path
        d="M339.07488,372.6075l9.42216-1.079,15.29295,1.079,50.24251-29.91962c6.31911-3.76306,14.48643-1.7967,18.4004,4.43007l40.43829,64.33364-12.94803,8.63202-39.92309-41.00209-49.78704,41.00209s-50.56019,26.4483-54.8762-15.36941l23.73805-32.10669Z"
        fill="#2f2e41" />
    <polygon
        points="370.36595 410.37259 451.29113 402.81957 527.9003 422.24161 532.21631 406.05658 427.55308 368.29149 389.78799 378.00251 370.36595 410.37259"
        fill="#2f2e41" />
    <path
        d="M279.61075,322.03693s-7.42528,9.2859-2.83961,15.72206c4.58566,6.43615,33.61602,33.24188,33.61602,33.24188,0,0,18.56365,14.33951,18.43161-2.65989-.13205-16.9994-26.53218-38.03059-26.53218-38.03059l-22.67584-8.27346Z"
        fill="#e6e6e6" />
    <g>
        <circle cx="302.57047" cy="286.97905" r="20.48643" fill="#ffb6b6" />
        <path
            d="M321.4564,283.45794c-5.25399-.01258-5.55229,.02243-6.40201,0-6.51658-.17185-8.22063-2.73562-11.52362-2.5608-5.89529,.31205,1.88559,29.86914,5.12161,43.53366,3.17365,13.40131-7.5519,25.41-8.32261,26.24823-10.88662,11.83989-30.00918,14.00486-33.29044,8.96281-2.65591-4.08105,6.75665-10.28627,4.48141-19.20603-2.22414-8.71938-12.49408-7.79088-15.36482-16.00502-3.00641-8.60231,7.09676-12.94093,13.44422-33.93064,3.64536-12.05448,3.00047-14.30059,6.40201-21.76683,9.09223-19.95684,53.6584-11.45976,48.65526,7.04221-.9678,3.57896,1.60777,7.6939-3.201,7.68241Z"
            fill="#2f2e41" />
    </g>
    <path
        d="M180.96375,296.68761c26.17947,2.10492,86.53853,45.94497,86.53859,45.94503,47.26279,47.31976,117.85486,50.12592,165,52,70.09753,2.7865,123.16309-19.03186,162-35,.00012-.00006,80.466,13.08636,90-18,.09094-.29651,.79102-2.91016,2-3,1.4469-.10751,2.81732,3.4599,3,4,2.99634,8.85846-29.948,41.67468-68,53-5.18396,1.54291-16.94427,4.61603-29,14-7.4845,5.82581-11.88135,11.59204-13,13-10.21014,12.85089-64.46973,61.80426-126,64-52.62238,1.87787-94.68774-31.01001-142-68-18.7652-14.67114-16.51492-15.75439-40-34-53.26199-41.37933-79.89301-62.06903-92-69-1.67798-.9606-4.09242-18.18944-3.53859-19.94503,.50555-1.60257,3.12259,.84906,5,1Z"
        fill="#2563eb" />
    <path
        d="M391.54985,403.63957c1.52016-3.07535-1.16468-7.50439-5.99865-9.89404-1.91791-.98107-4.04284-1.48856-6.19704-1.48003l-5.51136-2.63934,.02739-.10163-23.61749-16.57402c-5.49135-3.85366-12.48238-5.0651-18.86933-3.01266-3.79945,1.22095-6.61991,3.28698-4.93846,6.78031,2.79006,5.79657,24.15775,13.76124,36.51401,17.95363l12.14919,6.18311c1.30147,1.71757,2.99542,3.09837,4.94004,4.02683,4.83195,2.38948,9.98152,1.83316,11.50171-1.24215Z"
        fill="#ffb6b6" />
</svg>