<svg xmlns="http://www.w3.org/2000/svg" xmlns:xlink="http://www.w3.org/1999/xlink" zoomAndPan="magnify"
    viewBox="0 0 337.5 213.749993" preserveAspectRatio="xMidYMid meet" version="1.0">
    <defs>
        <g />
        <clipPath id="id1">
            <path d="M 1.59375 37 L 124.460938 37 L 124.460938 187.957031 L 1.59375 187.957031 Z M 1.59375 37 "
                clip-rule="nonzero" />
        </clipPath>
        <clipPath id="id2">
            <path d="M 43 13.765625 L 83 13.765625 L 83 42 L 43 42 Z M 43 13.765625 " clip-rule="nonzero" />
        </clipPath>
        <clipPath id="id3">
            <path d="M 9 142 L 43 142 L 43 187.957031 L 9 187.957031 Z M 9 142 " clip-rule="nonzero" />
        </clipPath>
    </defs>
    <g fill="#ffffff" fill-opacity="1">
        <g transform="translate(126.725144, 86.915901)">
            <g>
                <path
                    d="M 8.796875 0 L 28.558594 0 C 48.441406 0 64.707031 -16.148438 64.707031 -36.148438 C 64.707031 -56.152344 48.441406 -72.296875 28.558594 -72.296875 L 8.796875 -72.296875 Z M 16.386719 -7.710938 L 16.386719 -64.585938 L 28.4375 -64.585938 C 44.464844 -64.585938 56.996094 -52.417969 56.996094 -36.148438 C 56.996094 -19.882812 44.464844 -7.710938 28.4375 -7.710938 Z M 16.386719 -7.710938 " />
            </g>
        </g>
    </g>
    <g fill="#ffffff" fill-opacity="1">
        <g transform="translate(188.849925, 86.915901)">
            <g>
                <path
                    d="M 58.320312 -72.296875 L 48.800781 -72.296875 L 29.28125 -42.292969 L 9.761719 -72.296875 L 0.121094 -72.296875 L 25.425781 -34.222656 L 25.425781 0 L 33.136719 0 L 33.136719 -34.339844 Z M 58.320312 -72.296875 " />
            </g>
        </g>
    </g>
    <g fill="#ffffff" fill-opacity="1">
        <g transform="translate(126.725144, 186.640002)">
            <g>
                <path
                    d="M 26.992188 0.964844 C 39.28125 0.964844 49.28125 -6.386719 49.28125 -19.039062 C 49.28125 -43.621094 14.097656 -37.59375 14.097656 -54.824219 C 14.097656 -62.054688 20.003906 -65.550781 26.75 -65.550781 C 32.292969 -65.550781 36.871094 -63.261719 39.765625 -59.164062 L 45.789062 -64.226562 C 41.8125 -69.285156 34.824219 -73.261719 26.507812 -73.261719 C 15.421875 -73.261719 6.386719 -66.03125 6.386719 -54.222656 C 6.386719 -30.96875 41.570312 -36.75 41.570312 -18.796875 C 41.570312 -11.085938 35.183594 -6.746094 27.113281 -6.746094 C 18.917969 -6.746094 13.011719 -11.207031 10.484375 -17.832031 L 3.496094 -13.738281 C 7.230469 -4.820312 16.265625 0.964844 26.992188 0.964844 Z M 26.992188 0.964844 " />
            </g>
        </g>
    </g>
    <g fill="#ffffff" fill-opacity="1">
        <g transform="translate(171.017102, 186.640002)">
            <g>
                <path
                    d="M 30.96875 -40.96875 L 30.96875 -48.199219 L 18.074219 -48.199219 L 18.074219 -69.164062 L 10.605469 -69.164062 L 10.605469 -48.199219 L 2.53125 -48.199219 L 2.53125 -40.96875 L 10.605469 -40.96875 L 10.605469 -12.652344 C 10.605469 -5.0625 16.988281 0.964844 24.460938 0.964844 C 26.871094 0.964844 29.523438 0.242188 30.847656 -0.601562 L 30.847656 -6.265625 L 25.304688 -6.265625 C 21.449219 -6.265625 18.074219 -9.15625 18.074219 -13.617188 L 18.074219 -40.96875 Z M 30.96875 -40.96875 " />
            </g>
        </g>
    </g>
    <g fill="#ffffff" fill-opacity="1">
        <g transform="translate(197.476226, 186.640002)">
            <g>
                <path
                    d="M 30.484375 0.964844 C 44.34375 0.964844 55.550781 -10.242188 55.550781 -24.097656 C 55.550781 -37.957031 44.34375 -49.164062 30.484375 -49.164062 C 16.628906 -49.164062 5.421875 -37.957031 5.421875 -24.097656 C 5.421875 -10.242188 16.628906 0.964844 30.484375 0.964844 Z M 30.484375 -6.507812 C 20.726562 -6.507812 12.894531 -14.339844 12.894531 -24.097656 C 12.894531 -33.859375 20.726562 -41.691406 30.484375 -41.691406 C 40.125 -41.691406 48.078125 -33.859375 48.078125 -24.097656 C 48.078125 -14.339844 40.125 -6.507812 30.484375 -6.507812 Z M 30.484375 -6.507812 " />
            </g>
        </g>
    </g>
    <g fill="#ffffff" fill-opacity="1">
        <g transform="translate(249.961634, 186.640002)">
            <g>
                <path
                    d="M 32.292969 -49.164062 C 25.425781 -49.164062 19.882812 -46.148438 16.265625 -41.332031 L 16.265625 -48.199219 L 8.796875 -48.199219 L 8.796875 0 L 16.265625 0 L 16.265625 -26.148438 C 16.265625 -34.945312 23.496094 -41.691406 32.292969 -41.691406 C 33.738281 -41.691406 34.945312 -41.570312 36.027344 -41.210938 L 36.027344 -48.800781 C 34.945312 -49.042969 33.738281 -49.164062 32.292969 -49.164062 Z M 32.292969 -49.164062 " />
            </g>
        </g>
    </g>
    <g fill="#ffffff" fill-opacity="1">
        <g transform="translate(278.107655, 186.640002)">
            <g>
                <path
                    d="M 55.550781 -24.582031 C 55.1875 -38.4375 44.222656 -49.164062 30.484375 -49.164062 C 16.628906 -49.164062 5.421875 -37.957031 5.421875 -24.097656 C 5.421875 -10.242188 16.628906 0.964844 30.484375 0.964844 C 41.933594 0.964844 51.453125 -6.628906 54.585938 -16.988281 L 46.632812 -16.988281 C 43.980469 -10.722656 37.714844 -6.507812 30.484375 -6.507812 C 20.964844 -6.507812 13.375 -13.738281 12.894531 -23.015625 L 55.429688 -23.015625 Z M 30.484375 -41.691406 C 38.199219 -41.691406 44.703125 -36.75 46.992188 -29.761719 L 13.855469 -29.761719 C 16.265625 -36.75 22.773438 -41.691406 30.484375 -41.691406 Z M 30.484375 -41.691406 " />
            </g>
        </g>
    </g>
    <g clip-path="url(#id1)">
        <path fill="#ffffff"
            d="M 124.125 163.988281 L 108.046875 68.625 C 106.550781 58.453125 97.632812 50.789062 87.320312 50.789062 L 42.96875 50.789062 L 42.96875 55.105469 L 87.320312 55.105469 C 95.5 55.105469 102.582031 61.195312 103.78125 69.261719 L 119.847656 164.625 C 120.558594 169.398438 119.136719 174.238281 115.984375 177.890625 C 112.820312 181.542969 108.238281 183.648438 103.398438 183.648438 L 22.664062 183.648438 C 22.050781 183.648438 21.425781 183.617188 20.808594 183.53125 C 19.535156 183.40625 18.304688 183.097656 17.105469 182.6875 C 16.265625 183.914062 15.449219 185.140625 14.621094 186.359375 C 15.777344 186.847656 16.976562 187.226562 18.199219 187.480469 C 19.652344 187.808594 21.160156 187.96875 22.664062 187.96875 L 103.386719 187.96875 C 109.488281 187.96875 115.273438 185.320312 119.253906 180.71875 C 123.253906 176.101562 125.027344 170.003906 124.125 163.988281 Z M 12.0625 179.828125 C 11.351562 179.234375 10.695312 178.589844 10.070312 177.890625 C 6.894531 174.238281 5.496094 169.398438 6.207031 164.625 L 22.273438 56.3125 C 23.472656 48.246094 30.550781 42.160156 38.734375 42.160156 L 82.839844 42.160156 L 82.839844 37.839844 L 38.734375 37.839844 C 28.417969 37.839844 19.503906 45.503906 17.996094 55.679688 L 1.917969 163.988281 C 1.027344 170.003906 2.796875 176.101562 6.789062 180.707031 C 7.660156 181.710938 8.625 182.632812 9.644531 183.425781 C 10.558594 184.15625 11.5 184.792969 12.507812 185.34375 L 14.960938 181.765625 C 13.929688 181.226562 12.964844 180.578125 12.0625 179.828125 Z M 12.0625 179.828125 "
            fill-opacity="1" fill-rule="nonzero" />
    </g>
    <g clip-path="url(#id2)">
        <path fill="#ffffff"
            d="M 82.828125 41.925781 L 43.210938 41.925781 L 43.210938 30.460938 C 43.210938 20.902344 53.316406 13.765625 62.347656 13.765625 C 81.703125 13.765625 82.820312 31.425781 82.828125 31.59375 Z M 47.542969 37.609375 L 78.5 37.609375 L 78.5 31.699219 C 78.46875 31.253906 77.535156 18.074219 62.335938 18.074219 C 55.492188 18.074219 47.542969 23.484375 47.542969 30.449219 Z M 47.542969 37.609375 "
            fill-opacity="1" fill-rule="nonzero" />
    </g>
    <g clip-path="url(#id3)">
        <path fill="#ffffff"
            d="M 42.53125 142.4375 L 36.472656 177.414062 L 30.5625 168.808594 L 20.796875 183.523438 L 18.1875 187.460938 C 16.96875 187.207031 15.769531 186.824219 14.609375 186.339844 C 15.429688 185.132812 16.253906 183.894531 17.09375 182.664062 C 22.632812 174.449219 27.929688 166.605469 28.578125 165.714844 C 30.414062 163.144531 31.910156 165.195312 31.910156 165.195312 L 34.246094 169.242188 L 37.089844 150.25 L 21.5 160.71875 C 21.5 160.71875 22.496094 160.664062 25.179688 160.847656 C 27.875 161.035156 26.953125 164.171875 26.953125 164.171875 L 14.980469 181.734375 L 12.53125 185.3125 C 11.523438 184.761719 10.566406 184.136719 9.664062 183.394531 L 12.074219 179.796875 L 22.613281 164.160156 L 13.730469 161.195312 Z M 42.53125 142.4375 "
            fill-opacity="1" fill-rule="nonzero" />
    </g>
    <path fill="#ffffff"
        d="M 41.257812 163.597656 L 40.769531 159.3125 C 43.59375 158.992188 46.128906 157.597656 47.902344 155.371094 C 49.675781 153.148438 50.472656 150.375 50.152344 147.558594 C 49.835938 144.742188 48.433594 142.214844 46.207031 140.445312 C 43.988281 138.675781 41.207031 137.882812 38.371094 138.199219 C 32.546875 138.859375 28.332031 144.128906 28.992188 149.953125 L 24.691406 150.4375 C 24.246094 146.480469 25.363281 142.574219 27.855469 139.449219 C 30.351562 136.328125 33.90625 134.359375 37.882812 133.914062 C 41.863281 133.457031 45.769531 134.582031 48.902344 137.070312 C 52.03125 139.554688 53.996094 143.101562 54.453125 147.074219 C 54.90625 151.03125 53.78125 154.9375 51.289062 158.0625 C 48.785156 161.175781 45.230469 163.144531 41.257812 163.597656 Z M 41.257812 163.597656 "
        fill-opacity="1" fill-rule="nonzero" />
</svg>