<svg xmlns="http://www.w3.org/2000/svg" xmlns:xlink="http://www.w3.org/1999/xlink" zoomAndPan="magnify"
    viewBox="0 0 337.5 213.749993" preserveAspectRatio="xMidYMid meet" version="1.0">
    <defs>
        <g />
        <clipPath id="id1">
            <path d="M 1.566406 37 L 124.441406 37 L 124.441406 187.972656 L 1.566406 187.972656 Z M 1.566406 37 "
                clip-rule="nonzero" />
        </clipPath>
        <clipPath id="id2">
            <path d="M 43 13.769531 L 83 13.769531 L 83 42 L 43 42 Z M 43 13.769531 " clip-rule="nonzero" />
        </clipPath>
        <clipPath id="id3">
            <path d="M 9 142 L 43 142 L 43 187.972656 L 9 187.972656 Z M 9 142 " clip-rule="nonzero" />
        </clipPath>
    </defs>
    <g fill="#2563eb" fill-opacity="1">
        <g transform="translate(126.708427, 86.249505)">
            <g>
                <path
                    d="M 8.796875 0 L 28.558594 0 C 48.4375 0 64.703125 -16.144531 64.703125 -36.148438 C 64.703125 -56.148438 48.4375 -72.296875 28.558594 -72.296875 L 8.796875 -72.296875 Z M 16.386719 -7.710938 L 16.386719 -64.582031 L 28.4375 -64.582031 C 44.460938 -64.582031 56.992188 -52.414062 56.992188 -36.148438 C 56.992188 -19.882812 44.460938 -7.710938 28.4375 -7.710938 Z M 16.386719 -7.710938 " />
            </g>
        </g>
    </g>
    <g fill="#2563eb" fill-opacity="1">
        <g transform="translate(188.826898, 86.249505)">
            <g>
                <path
                    d="M 58.316406 -72.296875 L 48.800781 -72.296875 L 29.28125 -42.292969 L 9.761719 -72.296875 L 0.121094 -72.296875 L 25.425781 -34.21875 L 25.425781 0 L 33.136719 0 L 33.136719 -34.339844 Z M 58.316406 -72.296875 " />
            </g>
        </g>
    </g>
    <g fill="#2563eb" fill-opacity="1">
        <g transform="translate(126.708427, 185.411529)">
            <g>
                <path
                    d="M 26.992188 0.964844 C 39.28125 0.964844 49.28125 -6.386719 49.28125 -19.039062 C 49.28125 -43.617188 14.097656 -37.59375 14.097656 -54.824219 C 14.097656 -62.054688 20 -65.546875 26.75 -65.546875 C 32.292969 -65.546875 36.871094 -63.257812 39.761719 -59.160156 L 45.785156 -64.222656 C 41.8125 -69.28125 34.820312 -73.257812 26.507812 -73.257812 C 15.421875 -73.257812 6.386719 -66.03125 6.386719 -54.222656 C 6.386719 -30.964844 41.570312 -36.75 41.570312 -18.796875 C 41.570312 -11.085938 35.183594 -6.746094 27.109375 -6.746094 C 18.917969 -6.746094 13.011719 -11.207031 10.484375 -17.832031 L 3.496094 -13.734375 C 7.230469 -4.820312 16.265625 0.964844 26.992188 0.964844 Z M 26.992188 0.964844 " />
            </g>
        </g>
    </g>
    <g fill="#2563eb" fill-opacity="1">
        <g transform="translate(170.995484, 185.411529)">
            <g>
                <path
                    d="M 30.964844 -40.96875 L 30.964844 -48.195312 L 18.074219 -48.195312 L 18.074219 -69.164062 L 10.601562 -69.164062 L 10.601562 -48.195312 L 2.53125 -48.195312 L 2.53125 -40.96875 L 10.601562 -40.96875 L 10.601562 -12.652344 C 10.601562 -5.0625 16.988281 0.964844 24.460938 0.964844 C 26.871094 0.964844 29.519531 0.242188 30.847656 -0.601562 L 30.847656 -6.265625 L 25.304688 -6.265625 C 21.449219 -6.265625 18.074219 -9.15625 18.074219 -13.617188 L 18.074219 -40.96875 Z M 30.964844 -40.96875 " />
            </g>
        </g>
    </g>
    <g fill="#2563eb" fill-opacity="1">
        <g transform="translate(197.451156, 185.411529)">
            <g>
                <path
                    d="M 30.484375 0.964844 C 44.339844 0.964844 55.546875 -10.242188 55.546875 -24.097656 C 55.546875 -37.953125 44.339844 -49.160156 30.484375 -49.160156 C 16.628906 -49.160156 5.421875 -37.953125 5.421875 -24.097656 C 5.421875 -10.242188 16.628906 0.964844 30.484375 0.964844 Z M 30.484375 -6.507812 C 20.726562 -6.507812 12.894531 -14.339844 12.894531 -24.097656 C 12.894531 -33.859375 20.726562 -41.691406 30.484375 -41.691406 C 40.125 -41.691406 48.078125 -33.859375 48.078125 -24.097656 C 48.078125 -14.339844 40.125 -6.507812 30.484375 -6.507812 Z M 30.484375 -6.507812 " />
            </g>
        </g>
    </g>
    <g fill="#2563eb" fill-opacity="1">
        <g transform="translate(249.93104, 185.411529)">
            <g>
                <path
                    d="M 32.292969 -49.160156 C 25.425781 -49.160156 19.882812 -46.148438 16.265625 -41.328125 L 16.265625 -48.195312 L 8.796875 -48.195312 L 8.796875 0 L 16.265625 0 L 16.265625 -26.148438 C 16.265625 -34.941406 23.496094 -41.691406 32.292969 -41.691406 C 33.738281 -41.691406 34.941406 -41.570312 36.027344 -41.207031 L 36.027344 -48.800781 C 34.941406 -49.039062 33.738281 -49.160156 32.292969 -49.160156 Z M 32.292969 -49.160156 " />
            </g>
        </g>
    </g>
    <g fill="#2563eb" fill-opacity="1">
        <g transform="translate(278.073464, 185.411529)">
            <g>
                <path
                    d="M 55.546875 -24.582031 C 55.183594 -38.4375 44.21875 -49.160156 30.484375 -49.160156 C 16.628906 -49.160156 5.421875 -37.953125 5.421875 -24.097656 C 5.421875 -10.242188 16.628906 0.964844 30.484375 0.964844 C 41.929688 0.964844 51.449219 -6.628906 54.582031 -16.988281 L 46.628906 -16.988281 C 43.980469 -10.722656 37.714844 -6.507812 30.484375 -6.507812 C 20.964844 -6.507812 13.375 -13.734375 12.894531 -23.015625 L 55.425781 -23.015625 Z M 30.484375 -41.691406 C 38.195312 -41.691406 44.703125 -36.75 46.992188 -29.761719 L 13.855469 -29.761719 C 16.265625 -36.75 22.773438 -41.691406 30.484375 -41.691406 Z M 30.484375 -41.691406 " />
            </g>
        </g>
    </g>
    <g clip-path="url(#id1)">
        <path fill="#2563eb"
            d="M 124.105469 164.003906 L 108.027344 68.632812 C 106.53125 58.457031 97.617188 50.792969 87.300781 50.792969 L 42.945312 50.792969 L 42.945312 55.113281 L 87.300781 55.113281 C 95.480469 55.113281 102.5625 61.199219 103.761719 69.265625 L 119.832031 164.636719 C 120.542969 169.414062 119.117188 174.25 115.964844 177.902344 C 112.804688 181.558594 108.21875 183.664062 103.378906 183.664062 L 22.640625 183.664062 C 22.027344 183.664062 21.398438 183.632812 20.785156 183.546875 C 19.511719 183.421875 18.277344 183.113281 17.078125 182.699219 C 16.242188 183.929688 15.421875 185.15625 14.597656 186.375 C 15.753906 186.859375 16.953125 187.242188 18.171875 187.496094 C 19.625 187.824219 21.132812 187.984375 22.640625 187.984375 L 103.367188 187.984375 C 109.472656 187.984375 115.253906 185.335938 119.234375 180.730469 C 123.238281 176.113281 125.007812 170.015625 124.105469 164.003906 Z M 12.039062 179.839844 C 11.328125 179.25 10.667969 178.601562 10.042969 177.902344 C 6.871094 174.25 5.46875 169.414062 6.179688 164.636719 L 22.25 56.320312 C 23.449219 48.25 30.527344 42.164062 38.710938 42.164062 L 82.820312 42.164062 L 82.820312 37.84375 L 38.710938 37.84375 C 28.394531 37.84375 19.476562 45.507812 17.972656 55.683594 L 1.890625 164.003906 C 1 170.015625 2.773438 176.113281 6.761719 180.71875 C 7.632812 181.726562 8.597656 182.648438 9.617188 183.441406 C 10.53125 184.171875 11.476562 184.808594 12.484375 185.359375 L 14.933594 181.777344 C 13.90625 181.238281 12.941406 180.59375 12.039062 179.839844 Z M 12.039062 179.839844 "
            fill-opacity="1" fill-rule="nonzero" />
    </g>
    <g clip-path="url(#id2)">
        <path fill="#2563eb"
            d="M 82.808594 41.929688 L 43.1875 41.929688 L 43.1875 30.464844 C 43.1875 20.902344 53.292969 13.769531 62.324219 13.769531 C 81.683594 13.769531 82.800781 31.425781 82.808594 31.597656 Z M 47.519531 37.609375 L 78.480469 37.609375 L 78.480469 31.703125 C 78.449219 31.257812 77.511719 18.078125 62.316406 18.078125 C 55.46875 18.078125 47.519531 23.488281 47.519531 30.453125 Z M 47.519531 37.609375 "
            fill-opacity="1" fill-rule="nonzero" />
    </g>
    <g clip-path="url(#id3)">
        <path fill="#2563eb"
            d="M 42.507812 142.445312 L 36.449219 177.429688 L 30.539062 168.820312 L 20.773438 183.535156 L 18.160156 187.476562 C 16.941406 187.222656 15.742188 186.839844 14.585938 186.351562 C 15.402344 185.144531 16.230469 183.90625 17.070312 182.679688 C 22.609375 174.464844 27.90625 166.617188 28.554688 165.730469 C 30.390625 163.15625 31.886719 165.210938 31.886719 165.210938 L 34.21875 169.253906 L 37.066406 150.261719 L 21.472656 160.730469 C 21.472656 160.730469 22.472656 160.679688 25.15625 160.859375 C 27.851562 161.050781 26.929688 164.183594 26.929688 164.183594 L 14.957031 181.746094 L 12.503906 185.324219 C 11.496094 184.777344 10.542969 184.152344 9.640625 183.410156 L 12.046875 179.808594 L 22.589844 164.171875 L 13.703125 161.207031 Z M 42.507812 142.445312 "
            fill-opacity="1" fill-rule="nonzero" />
    </g>
    <path fill="#2563eb"
        d="M 41.234375 163.609375 L 40.746094 159.324219 C 43.570312 159.003906 46.109375 157.609375 47.878906 155.386719 C 49.652344 153.160156 50.449219 150.386719 50.128906 147.570312 C 49.8125 144.753906 48.410156 142.226562 46.183594 140.457031 C 43.964844 138.6875 41.183594 137.894531 38.347656 138.210938 C 32.523438 138.867188 28.308594 144.140625 28.964844 149.964844 L 24.667969 150.449219 C 24.222656 146.492188 25.335938 142.585938 27.832031 139.460938 C 30.324219 136.339844 33.882812 134.367188 37.859375 133.925781 C 41.839844 133.46875 45.746094 134.589844 48.878906 137.078125 C 52.007812 139.566406 53.972656 143.113281 54.429688 147.085938 C 54.886719 151.042969 53.761719 154.949219 51.265625 158.074219 C 48.761719 161.1875 45.207031 163.15625 41.234375 163.609375 Z M 41.234375 163.609375 "
        fill-opacity="1" fill-rule="nonzero" />
</svg>