<svg xmlns="http://www.w3.org/2000/svg" xmlns:xlink="http://www.w3.org/1999/xlink" zoomAndPan="magnify"
    viewBox="0 0 960 599.999999" preserveAspectRatio="xMidYMid meet" version="1.0">
    <defs>
        <clipPath id="id1">
            <path d="M 0 0.152344 L 960 0.152344 L 960 513 L 0 513 Z M 0 0.152344 " clip-rule="nonzero" />
        </clipPath>
    </defs>
    <g>
        <path fill="#2563eb"
            d="M 956.222656 170.289062 C 950.9375 176.328125 941.683594 176.894531 935.640625 171.609375 C 932.621094 168.96875 930.921875 165.382812 930.730469 161.417969 C 930.542969 156.507812 930.355469 151.789062 930.164062 146.882812 C 929.976562 139.519531 929.597656 132.15625 929.222656 124.796875 L 929.03125 125.171875 C 924.3125 133.667969 919.589844 142.351562 915.058594 150.847656 C 910.339844 159.90625 905.804688 168.777344 901.085938 177.839844 C 896.175781 187.089844 891.078125 196.339844 885.980469 205.589844 C 883.714844 209.742188 881.449219 213.894531 879.183594 218.046875 C 876.726562 222.578125 874.082031 227.296875 871.441406 231.640625 C 866.53125 239.945312 861.621094 248.441406 856.332031 256.558594 C 853.691406 260.710938 851.046875 264.863281 848.214844 269.015625 C 845.382812 273.171875 842.550781 277.324219 839.527344 281.476562 C 836.316406 285.816406 833.109375 290.160156 829.707031 294.5 C 826.308594 298.84375 823.289062 302.429688 819.890625 306.394531 C 816.492188 310.359375 813.09375 314.132812 809.503906 317.910156 L 802.707031 325.082031 C 801.007812 326.78125 799.308594 328.480469 797.609375 329.988281 C 795.53125 331.878906 793.644531 334.144531 791.566406 336.03125 L 785.902344 340.9375 C 784.390625 342.261719 782.878906 343.769531 781.179688 345.09375 L 773.625 351.132812 C 769.285156 354.53125 764.753906 357.738281 760.21875 360.949219 C 758.332031 362.269531 756.445312 363.402344 754.554688 364.535156 C 752.667969 365.667969 750.589844 367.179688 748.703125 368.3125 C 744.167969 370.953125 739.828125 373.597656 735.105469 376.050781 L 726.421875 380.582031 C 724.71875 381.523438 722.832031 382.28125 720.945312 383.035156 C 718.300781 384.167969 715.84375 385.300781 713.203125 386.433594 L 704.894531 389.832031 C 700.363281 391.53125 695.828125 393.039062 691.296875 394.359375 C 689.03125 395.117188 686.578125 395.683594 684.3125 396.25 C 682.046875 396.816406 679.589844 397.570312 677.136719 398.136719 L 667.695312 400.214844 C 665.804688 400.589844 663.730469 400.96875 661.839844 401.15625 C 659.007812 401.535156 656.363281 402.101562 653.53125 402.476562 L 644.46875 403.421875 C 642.390625 403.609375 640.316406 403.800781 638.238281 403.988281 C 636.160156 404.175781 633.515625 404.367188 631.25 404.367188 C 625.964844 404.367188 620.488281 404.554688 615.199219 404.367188 L 609.15625 403.988281 C 608.214844 403.988281 607.269531 403.988281 606.515625 403.800781 L 598.960938 402.855469 C 596.507812 402.476562 594.050781 402.289062 591.597656 401.722656 L 582.910156 400.214844 C 580.457031 399.835938 577.8125 399.082031 575.359375 398.515625 C 573.28125 397.949219 571.203125 397.570312 568.9375 396.816406 L 559.683594 394.171875 C 557.609375 393.605469 555.53125 392.851562 553.453125 392.097656 C 551.375 391.339844 549.300781 390.773438 547.222656 389.832031 L 538.535156 386.242188 C 536.082031 385.300781 533.816406 384.167969 531.550781 383.035156 C 529.285156 381.902344 527.394531 381.148438 525.320312 380.015625 C 520.785156 377.5625 516.066406 375.105469 511.722656 372.464844 L 509.835938 371.332031 L 508.890625 373.40625 L 504.359375 382.28125 C 503.601562 383.980469 502.660156 385.488281 501.714844 387 L 497.183594 394.925781 C 496.050781 397.191406 494.539062 399.082031 493.21875 401.347656 L 490.007812 406.253906 C 489.628906 406.820312 489.253906 407.574219 488.6875 408.140625 L 484.152344 414.371094 C 482.644531 416.636719 481.132812 418.710938 479.433594 420.789062 C 477.734375 422.867188 475.65625 425.320312 473.769531 427.585938 C 472.636719 429.09375 471.3125 430.417969 470.179688 431.925781 L 463.570312 438.910156 C 459.984375 442.6875 456.019531 446.273438 452.054688 449.859375 C 450.542969 451.371094 448.84375 452.503906 447.144531 453.824219 L 441.480469 458.542969 C 439.023438 460.429688 436.378906 462.320312 433.925781 464.019531 C 432.414062 465.152344 430.714844 466.472656 429.207031 467.414062 C 425.050781 470.058594 420.707031 472.890625 416.363281 475.34375 L 407.679688 480.253906 C 405.601562 481.386719 403.335938 482.519531 401.257812 483.648438 C 399.179688 484.78125 396.726562 486.105469 394.273438 487.238281 L 386.53125 490.824219 C 384.265625 491.765625 382 492.898438 379.730469 493.65625 L 370.292969 497.242188 C 368.402344 497.996094 366.515625 498.5625 364.625 499.128906 L 359.527344 500.828125 C 358.773438 501.015625 357.828125 501.394531 357.074219 501.582031 C 352.164062 502.90625 347.253906 504.414062 342.15625 505.546875 L 332.335938 507.625 C 330.636719 508 328.9375 508.191406 327.238281 508.566406 L 318.929688 509.890625 C 317.609375 510.078125 316.476562 510.078125 315.152344 510.265625 L 310.054688 510.832031 C 307.789062 511.210938 305.710938 511.398438 303.636719 511.589844 L 294.003906 512.34375 C 291.925781 512.53125 289.660156 512.53125 287.585938 512.722656 C 285.507812 512.910156 282.863281 512.910156 280.410156 512.910156 C 275.3125 512.910156 270.210938 513.097656 265.113281 512.910156 C 260.015625 512.722656 254.917969 512.53125 249.820312 512.34375 C 247.175781 512.15625 244.53125 511.964844 241.886719 511.777344 L 233.578125 510.832031 C 228.292969 510.265625 223.003906 509.324219 217.71875 508.566406 C 215.261719 508.191406 212.808594 507.625 210.355469 507.246094 C 208.277344 506.871094 206.390625 506.492188 204.5 505.925781 C 199.402344 504.792969 194.492188 503.472656 189.394531 502.148438 C 186.9375 501.394531 184.484375 500.828125 182.03125 499.882812 C 179.574219 498.941406 177.308594 498.375 175.042969 497.621094 C 169.757812 495.542969 164.46875 493.464844 159.183594 491.199219 C 157.105469 490.257812 155.027344 489.3125 152.949219 488.371094 C 150.875 487.425781 149.175781 486.671875 147.285156 485.726562 C 144.453125 484.40625 141.808594 482.894531 138.976562 481.574219 C 136.898438 480.628906 135.011719 479.308594 132.933594 478.363281 C 130.667969 477.230469 128.402344 475.910156 126.136719 474.589844 C 123.871094 473.269531 121.417969 471.945312 119.148438 470.4375 C 114.996094 467.792969 110.84375 465.152344 106.875 462.320312 C 102.910156 459.488281 98.378906 456.277344 94.035156 453.070312 C 90.257812 450.050781 86.292969 447.027344 82.707031 444.007812 C 78.550781 440.421875 74.398438 436.835938 70.433594 433.058594 C 68.542969 431.359375 66.65625 429.472656 64.769531 427.585938 C 62.878906 425.699219 61.367188 424.1875 59.667969 422.300781 C 57.96875 420.410156 56.460938 418.710938 54.949219 416.824219 L 49.285156 410.21875 C 46.261719 406.632812 43.242188 402.855469 40.410156 399.082031 C 37.199219 395.117188 33.988281 390.964844 30.96875 386.808594 C 24.925781 378.503906 19.449219 369.820312 14.539062 360.761719 C 13.40625 358.496094 12.273438 356.417969 11.140625 354.152344 C 10.007812 351.886719 9.253906 349.8125 8.308594 347.734375 C 6.796875 344.335938 5.476562 340.9375 3.777344 337.730469 C 2.453125 336.21875 1.320312 334.519531 0.753906 332.445312 C 0.566406 331.121094 0.1875 329.800781 0.1875 328.292969 C 0 325.082031 0.945312 322.0625 2.644531 319.417969 C 4.152344 317.34375 6.230469 315.453125 8.496094 314.320312 C 10.761719 313.191406 13.40625 312.625 15.863281 313 C 18.316406 313.191406 20.769531 314.132812 22.847656 315.453125 C 26.4375 317.71875 28.703125 321.871094 30.402344 325.460938 C 31.722656 328.101562 33.042969 330.933594 34.179688 333.765625 C 35.3125 336.597656 36.253906 339.050781 37.578125 341.695312 C 38.898438 344.335938 40.03125 346.601562 41.351562 348.867188 C 43.621094 352.644531 45.695312 356.417969 48.152344 360.195312 C 50.792969 364.15625 53.4375 368.121094 56.269531 372.085938 C 60.613281 377.75 64.957031 383.222656 69.300781 388.699219 C 71.753906 391.71875 74.398438 394.738281 76.851562 397.757812 C 79.117188 400.402344 81.574219 402.855469 83.839844 405.308594 C 88.183594 409.652344 92.714844 413.992188 97.433594 418.148438 C 100.265625 420.601562 102.910156 422.867188 105.742188 425.320312 C 108.007812 427.207031 110.085938 428.90625 112.351562 430.605469 C 114.617188 432.304688 117.074219 434.191406 119.527344 435.890625 C 121.984375 437.589844 124.816406 439.667969 127.457031 441.367188 C 130.101562 443.0625 132.746094 444.953125 135.578125 446.652344 L 143.320312 451.371094 C 146.152344 452.878906 148.984375 454.578125 151.816406 456.089844 C 154.648438 457.601562 157.859375 459.296875 161.070312 460.808594 L 170.890625 465.152344 C 173.53125 466.472656 176.363281 467.414062 179.199219 468.546875 L 177.875 467.980469 L 184.296875 470.4375 C 185.996094 471.191406 187.695312 471.570312 189.582031 472.136719 C 193.171875 473.269531 196.757812 474.402344 200.15625 475.34375 C 205.253906 476.664062 210.355469 477.988281 215.640625 478.929688 C 218.664062 479.496094 221.683594 480.0625 224.703125 480.628906 L 233.011719 481.953125 L 243.019531 483.082031 C 245.664062 483.460938 248.496094 483.460938 251.140625 483.648438 C 253.785156 483.839844 256.238281 484.027344 258.695312 484.027344 L 267.570312 484.214844 L 275.121094 484.214844 C 276.445312 484.214844 277.765625 484.214844 278.898438 484.214844 L 284.941406 484.027344 C 287.019531 484.027344 289.09375 484.027344 290.984375 483.839844 L 297.027344 483.460938 C 299.101562 483.273438 300.992188 483.273438 303.070312 483.082031 L 313.453125 481.953125 L 319.875 480.820312 C 321.761719 480.441406 323.652344 480.253906 325.539062 479.875 L 337.058594 477.421875 L 346.5 474.964844 C 349.140625 474.210938 351.785156 473.269531 354.429688 472.511719 C 357.074219 471.757812 359.339844 471.003906 361.605469 470.058594 L 369.535156 467.039062 L 375.390625 464.394531 C 377.277344 463.640625 379.164062 462.886719 380.867188 461.941406 L 392.195312 456.089844 L 400.316406 451.371094 C 402.769531 449.859375 405.222656 448.351562 407.679688 446.839844 C 410.132812 445.328125 412.398438 444.007812 414.664062 442.308594 L 422.21875 436.835938 L 426.5625 433.25 L 430.339844 430.226562 C 430.714844 429.851562 431.28125 429.472656 431.660156 429.09375 L 440.347656 420.976562 L 444.121094 417.015625 L 447.332031 413.617188 C 447.710938 413.238281 448.089844 412.859375 448.464844 412.292969 L 456.398438 402.855469 L 460.171875 397.570312 C 461.304688 396.058594 462.628906 394.359375 463.570312 392.851562 L 470.9375 381.523438 C 473.390625 377.183594 475.847656 373.03125 478.113281 368.6875 C 479.621094 365.855469 481.132812 363.214844 482.453125 360.382812 C 483.019531 359.0625 483.777344 357.550781 484.34375 356.230469 L 484.152344 356.039062 C 480.1875 353.210938 476.414062 350.1875 472.445312 347.355469 C 470.179688 345.660156 467.914062 343.769531 465.648438 342.070312 C 464.136719 340.75 462.4375 339.617188 460.929688 338.296875 C 457.152344 335.085938 453.1875 331.878906 449.410156 328.292969 C 447.332031 326.402344 445.066406 324.515625 443.179688 322.4375 L 437.890625 316.964844 C 436.191406 315.265625 434.304688 313.566406 432.605469 311.679688 L 426.183594 304.695312 C 424.863281 303.183594 423.539062 301.675781 422.21875 300.164062 C 420.519531 298.277344 418.820312 296.390625 417.308594 294.3125 C 414.289062 290.347656 410.890625 286.382812 408.054688 282.230469 L 402.582031 274.492188 C 401.257812 272.605469 399.9375 270.527344 398.804688 268.640625 C 393.328125 260.332031 388.417969 251.839844 383.507812 243.34375 C 382.375 241.265625 381.054688 239.191406 379.921875 236.925781 C 378.410156 234.09375 376.898438 231.261719 375.390625 228.242188 C 374.445312 226.355469 373.5 224.46875 372.558594 222.578125 C 371.425781 220.3125 370.292969 218.046875 369.15625 215.59375 C 367.082031 211.0625 365.003906 206.34375 363.304688 201.625 C 361.605469 196.90625 359.527344 192 357.828125 186.902344 C 357.074219 184.445312 355.941406 181.804688 355.375 179.351562 C 354.808594 176.894531 353.863281 173.875 353.109375 171.234375 C 351.597656 165.949219 350.464844 160.660156 349.140625 155.566406 C 348.574219 153.300781 348.199219 151.035156 347.632812 148.769531 C 347.066406 146.503906 346.6875 144.804688 346.5 142.730469 C 345.933594 139.707031 345.367188 136.5 344.988281 133.289062 C 344.609375 130.457031 344.234375 127.628906 344.042969 124.796875 C 343.476562 120.074219 343.289062 115.167969 343.289062 110.449219 C 343.101562 104.972656 343.289062 99.5 343.289062 94.027344 C 343.289062 93.082031 343.476562 92.136719 343.476562 91.195312 L 343.855469 86.097656 C 344.042969 83.832031 344.234375 81.566406 344.609375 79.300781 C 344.988281 77.035156 345.175781 75.335938 345.554688 73.449219 C 345.742188 72.695312 345.742188 71.9375 345.933594 71.183594 L 347.820312 62.878906 C 348.953125 57.59375 350.464844 52.496094 352.542969 47.585938 C 354.808594 41.167969 357.828125 35.128906 361.605469 29.464844 C 363.683594 26.257812 365.949219 23.046875 368.589844 20.214844 C 370.667969 17.949219 372.933594 15.683594 375.390625 13.796875 C 377.84375 11.722656 380.488281 10.023438 383.320312 8.324219 C 386.339844 6.625 389.550781 5.113281 392.761719 3.980469 C 399.183594 1.527344 405.980469 0.394531 412.964844 0.207031 L 413.722656 0.207031 C 420.140625 0.207031 426.5625 1.148438 432.605469 3.226562 C 439.402344 5.492188 445.632812 8.699219 451.488281 12.664062 C 456.773438 16.441406 461.683594 20.59375 466.214844 25.3125 C 471.125 30.597656 475.65625 36.261719 479.8125 42.300781 C 481.511719 44.566406 482.832031 47.210938 484.53125 49.476562 C 487.363281 53.816406 489.820312 58.347656 492.273438 62.878906 C 493.59375 65.144531 494.726562 67.410156 495.863281 69.675781 C 496.996094 71.941406 498.316406 74.203125 499.449219 76.46875 C 501.527344 80.621094 503.601562 84.777344 505.492188 89.117188 C 506.8125 92.136719 508.324219 95.347656 509.644531 98.367188 C 510.589844 100.632812 511.535156 102.898438 512.289062 105.164062 C 514.175781 109.695312 515.878906 114.414062 517.386719 119.132812 C 520.597656 128.757812 523.617188 138.386719 526.074219 148.390625 C 527.207031 153.109375 528.527344 158.019531 529.472656 162.738281 C 530.417969 167.457031 531.550781 172.367188 532.117188 177.460938 C 532.871094 182.75 533.816406 188.035156 534.382812 193.507812 C 534.949219 198.417969 535.515625 203.511719 535.894531 208.421875 C 536.269531 213.328125 536.648438 218.613281 536.835938 223.710938 C 537.027344 229.1875 537.214844 234.660156 537.214844 240.136719 L 537.027344 249.949219 C 537.027344 251.648438 537.027344 253.539062 537.027344 255.238281 L 536.460938 264.863281 C 536.460938 266.75 536.269531 268.640625 536.082031 270.527344 C 535.894531 273.738281 535.515625 276.757812 535.136719 279.777344 C 534.949219 282.230469 534.761719 284.496094 534.382812 286.949219 C 534.003906 289.972656 533.4375 292.800781 533.058594 295.632812 C 532.871094 297.523438 532.683594 299.410156 532.117188 301.296875 C 531.359375 304.507812 530.792969 307.527344 530.039062 310.734375 C 529.660156 312.433594 529.285156 313.945312 528.90625 315.644531 C 527.585938 320.929688 526.261719 326.027344 524.753906 331.3125 C 523.242188 336.03125 521.917969 340.5625 520.410156 345.28125 L 527.960938 349.8125 L 532.492188 352.265625 C 534.195312 353.210938 535.894531 354.152344 537.78125 355.097656 L 548.355469 360.195312 L 556.097656 363.402344 C 558.363281 364.347656 560.816406 365.101562 563.085938 365.855469 C 565.351562 366.613281 567.617188 367.367188 569.882812 368.121094 L 577.433594 370.386719 L 582.722656 371.707031 C 584.421875 372.085938 586.121094 372.464844 587.632812 372.839844 L 598.015625 374.730469 L 602.550781 375.296875 C 604.25 375.484375 605.949219 375.863281 607.648438 375.863281 L 618.410156 376.429688 L 627.472656 376.238281 C 629.929688 376.238281 632.382812 376.050781 634.839844 375.863281 C 637.292969 375.671875 639.558594 375.484375 642.015625 375.296875 L 649.566406 374.351562 L 655.421875 373.40625 C 657.121094 373.03125 658.820312 373.03125 660.519531 372.652344 L 671.09375 370.386719 L 678.648438 368.5 C 679.96875 368.121094 681.480469 367.746094 682.800781 367.179688 C 684.121094 366.613281 685.066406 366.613281 686.199219 366.234375 C 688.84375 365.289062 691.675781 364.347656 694.320312 363.402344 L 701.871094 360.382812 L 707.347656 357.738281 C 709.046875 356.984375 710.558594 356.417969 712.257812 355.472656 L 722.265625 350.378906 L 730.195312 345.847656 C 732.652344 344.335938 735.105469 342.828125 737.5625 341.316406 C 740.015625 339.804688 742.28125 338.296875 744.734375 336.597656 L 752.476562 331.121094 L 760.597656 324.703125 C 762.863281 323.003906 764.941406 320.929688 767.019531 319.042969 C 769.09375 317.152344 770.984375 315.453125 773.058594 313.566406 L 780.046875 306.769531 L 787.976562 298.277344 C 790.242188 295.824219 792.507812 293.367188 794.585938 290.914062 C 796.664062 288.460938 798.742188 286.195312 800.628906 283.742188 C 802.894531 280.910156 805.160156 278.078125 807.425781 275.246094 C 810.449219 271.09375 813.660156 267.128906 816.492188 262.789062 C 820.078125 257.691406 823.476562 252.40625 827.066406 247.308594 C 830.652344 242.210938 834.050781 236.546875 837.449219 231.074219 C 840.28125 226.730469 842.925781 222.203125 845.570312 217.671875 C 849.535156 210.6875 853.5 203.703125 857.277344 196.71875 C 860.867188 190.109375 864.453125 183.503906 868.039062 176.898438 C 872.761719 168.402344 877.292969 159.90625 881.636719 151.222656 C 886.546875 141.785156 891.457031 132.347656 896.554688 123.097656 C 900.140625 116.679688 903.539062 110.261719 907.128906 103.84375 L 900.519531 106.105469 C 894.097656 108.371094 887.679688 110.828125 881.257812 113.46875 C 877.105469 115.167969 872.949219 116.867188 868.796875 118.753906 C 864.640625 120.640625 861.054688 122.152344 857.277344 123.664062 C 855.578125 124.417969 853.691406 124.984375 851.800781 125.171875 C 849.914062 125.171875 848.023438 124.984375 846.324219 124.417969 C 838.773438 121.773438 834.617188 113.46875 837.261719 105.917969 C 837.828125 104.03125 838.773438 102.519531 840.09375 101.011719 C 841.417969 99.5 842.925781 98.367188 844.816406 97.421875 L 849.914062 95.347656 C 859.164062 91.382812 868.417969 87.417969 877.859375 83.832031 C 887.300781 80.246094 896.742188 76.847656 906.371094 73.636719 C 908.828125 72.882812 911.28125 72.128906 913.738281 71.5625 C 915.058594 71.183594 916.378906 70.808594 917.703125 70.617188 C 919.023438 70.429688 920.15625 69.863281 921.480469 69.675781 C 924.878906 68.917969 928.464844 68.542969 932.054688 68.351562 C 934.886719 68.164062 937.90625 68.730469 940.550781 69.675781 C 942.0625 70.242188 943.382812 70.996094 944.703125 71.941406 C 945.460938 72.316406 946.40625 72.695312 947.160156 73.261719 C 948.859375 74.394531 950.179688 75.714844 951.3125 77.414062 C 953.957031 81.1875 954.144531 85.71875 954.523438 90.0625 C 954.710938 91.382812 954.710938 92.703125 954.902344 94.027344 C 955.089844 96.480469 955.28125 98.933594 955.46875 101.386719 C 956.222656 111.394531 957.167969 121.398438 957.546875 131.214844 C 957.921875 141.03125 958.300781 151.414062 958.679688 161.605469 C 960 163.683594 958.679688 167.269531 956.222656 170.289062 Z M 29.078125 325.082031 L 28.890625 324.703125 C 28.890625 324.894531 29.078125 325.082031 29.078125 325.269531 Z M 507.570312 225.410156 C 507.570312 222.011719 507.191406 218.804688 507.003906 215.40625 C 506.8125 212.007812 506.625 208.609375 506.246094 205.210938 C 505.871094 201.4375 505.492188 197.472656 505.113281 193.695312 C 504.738281 189.921875 503.980469 185.769531 503.414062 181.804688 C 502.847656 178.40625 502.28125 175.199219 501.527344 171.988281 C 500.769531 168.777344 500.394531 165.570312 499.636719 162.359375 C 498.882812 159.152344 497.9375 155.566406 497.183594 152.167969 C 496.050781 148.203125 494.917969 144.238281 493.785156 140.273438 C 492.839844 136.6875 491.519531 133.289062 490.386719 129.703125 C 489.253906 126.117188 487.929688 122.53125 486.609375 118.945312 C 485.664062 116.113281 484.53125 113.46875 483.398438 110.828125 C 481.886719 107.429688 480.378906 104.21875 478.867188 100.820312 C 477.734375 98.367188 476.601562 95.914062 475.28125 93.460938 C 472.636719 87.984375 469.804688 82.699219 466.972656 77.226562 C 466.027344 75.714844 465.273438 74.203125 464.328125 72.695312 C 463.382812 71.183594 462.628906 69.484375 461.683594 67.976562 L 457.339844 60.992188 C 455.453125 58.160156 453.5625 55.328125 451.488281 52.496094 C 449.03125 49.285156 446.390625 46.265625 443.554688 43.246094 C 441.480469 41.167969 439.214844 39.28125 436.949219 37.394531 C 435.058594 36.074219 432.980469 34.75 431.09375 33.429688 C 429.582031 32.675781 427.882812 31.730469 426.375 30.976562 C 424.863281 30.222656 423.351562 29.84375 421.839844 29.277344 C 420.332031 28.710938 419.199219 28.710938 417.6875 28.332031 C 416.175781 27.957031 415.042969 28.144531 413.722656 27.957031 C 412.398438 27.765625 411.644531 27.957031 410.511719 28.144531 C 409.378906 28.332031 407.867188 28.523438 406.734375 28.898438 C 405.601562 29.277344 403.902344 29.84375 402.582031 30.222656 C 401.257812 30.597656 399.75 31.542969 398.425781 32.109375 C 397.292969 32.675781 396.347656 33.429688 395.214844 34.183594 C 394.082031 34.941406 393.140625 35.882812 392.195312 36.828125 C 390.875 38.148438 389.742188 39.46875 388.609375 40.980469 C 387.285156 42.679688 386.152344 44.566406 385.019531 46.265625 C 383.699219 48.71875 382.375 51.175781 381.242188 53.816406 C 379.734375 57.59375 378.410156 61.367188 377.277344 65.332031 C 376.898438 67.03125 376.523438 68.917969 376.144531 70.617188 C 375.765625 72.316406 375.199219 74.203125 375.011719 75.902344 L 373.691406 84.398438 C 373.5 86.097656 373.5 87.796875 373.3125 89.496094 C 373.125 91.195312 372.933594 93.082031 372.933594 94.78125 C 372.933594 97.800781 372.746094 100.820312 372.746094 103.839844 C 372.933594 107.804688 372.933594 111.769531 373.125 115.734375 C 373.3125 117.8125 373.3125 119.886719 373.5 121.964844 C 373.691406 123.472656 373.878906 125.171875 374.066406 126.683594 C 374.632812 129.703125 375.199219 132.914062 375.578125 135.933594 C 375.957031 138.574219 376.710938 141.21875 377.089844 143.671875 C 378.035156 148.390625 379.167969 153.109375 380.488281 157.832031 L 383.132812 167.082031 C 383.886719 169.722656 384.832031 172.175781 385.585938 174.632812 C 386.339844 177.085938 387.285156 179.726562 388.230469 182.183594 C 389.363281 185.011719 390.308594 187.84375 391.441406 190.675781 L 395.40625 199.738281 C 396.347656 202.003906 397.484375 204.269531 398.617188 206.722656 C 399.9375 209.363281 401.070312 212.007812 402.390625 214.460938 L 407.113281 223.335938 C 411.078125 230.128906 415.042969 237.113281 419.199219 243.722656 C 421.652344 247.6875 424.296875 251.839844 426.941406 255.804688 C 429.015625 258.824219 431.28125 261.84375 433.359375 265.050781 L 438.457031 271.660156 C 440.15625 273.734375 441.855469 275.625 443.367188 277.699219 C 444.878906 279.777344 446.765625 281.664062 448.464844 283.550781 C 450.730469 286.007812 452.996094 288.648438 455.265625 291.101562 L 458.664062 294.5 C 459.984375 295.824219 461.304688 297.332031 462.628906 298.652344 L 466.972656 302.808594 C 468.480469 304.128906 469.804688 305.636719 471.3125 306.960938 C 474.335938 309.601562 477.355469 312.246094 480.566406 314.886719 L 490.007812 322.4375 L 494.917969 326.214844 C 495.671875 323.761719 496.429688 321.304688 497.183594 318.851562 C 498.128906 315.453125 499.070312 312.058594 499.828125 308.660156 C 500.582031 305.828125 501.148438 302.808594 501.714844 299.785156 C 502.28125 296.765625 503.039062 293.558594 503.414062 290.535156 C 503.792969 287.515625 504.359375 284.117188 504.925781 280.910156 C 505.304688 276.757812 505.679688 272.792969 506.058594 268.640625 C 506.4375 265.242188 506.4375 261.84375 506.625 258.445312 C 506.8125 255.046875 507.003906 251.839844 507.003906 248.628906 C 507.003906 245.042969 507.003906 241.457031 507.191406 237.871094 C 507.757812 233.714844 507.570312 229.5625 507.570312 225.410156 Z M 507.570312 225.410156 "
            fill-opacity="1" fill-rule="nonzero" />
    </g>
</svg>